<?xml version="1.0" standalone="no"?>
<!DOCTYPE svg PUBLIC "-//W3C//DTD SVG 20010904//EN"
 "http://www.w3.org/TR/2001/REC-SVG-20010904/DTD/svg10.dtd">
<svg version="1.0" xmlns="http://www.w3.org/2000/svg"
 width="202.000000pt" height="185.000000pt" viewBox="0 0 202.000000 185.000000"
 preserveAspectRatio="xMidYMid meet">
<metadata>
Created by potrace 1.16, written by Peter Selinger 2001-2019
</metadata>
<g transform="translate(0.000000,185.000000) scale(0.100000,-0.100000)"
fill="#000000" stroke="none">
<path d="M664 1821 c-75 -19 -146 -93 -184 -191 -7 -19 -24 -57 -36 -85 -12
-27 -38 -88 -57 -135 -19 -47 -54 -130 -77 -185 -52 -123 -119 -285 -198 -475
l-60 -145 10 -130 c5 -72 9 -137 10 -145 0 -14 -17 -104 -24 -126 -2 -5 1 -10
6 -12 5 -2 22 27 39 64 21 49 45 82 83 116 126 116 127 119 179 363 25 121 48
222 51 224 4 4 269 -29 389 -49 28 -4 88 -13 135 -20 47 -6 220 -31 385 -54
l300 -44 183 81 c155 68 183 84 189 105 6 27 -4 51 -28 63 -30 15 -92 41 -142
59 -29 10 -88 31 -132 47 -86 31 -75 31 -255 3 -41 -6 -104 -16 -140 -21 -36
-6 -92 -15 -125 -20 -33 -6 -88 -14 -122 -19 -35 -6 -92 -14 -128 -20 -36 -5
-93 -14 -127 -19 -238 -35 -350 -52 -364 -58 -14 -5 -16 -2 -12 18 82 410 102
508 107 503 3 -3 11 -22 17 -42 7 -20 26 -75 44 -122 17 -47 35 -97 40 -111 4
-15 15 -42 23 -60 8 -19 20 -49 27 -66 7 -18 14 -33 15 -33 2 0 47 16 101 36
55 19 154 53 221 75 67 22 125 44 128 49 3 5 -6 39 -21 77 -36 93 -76 201
-115 305 -35 94 -75 145 -141 179 -43 22 -146 33 -194 20z"/>
<path d="M770 847 c0 -8 14 -52 31 -98 17 -46 34 -95 39 -109 5 -14 23 -63 40
-110 18 -47 34 -94 37 -105 3 -11 9 -24 13 -30 3 -5 15 -36 25 -67 11 -32 23
-58 28 -58 5 0 35 16 67 36 32 20 76 38 98 41 61 8 138 -34 229 -126 l75 -76
-618 -16 c-677 -18 -827 -26 -821 -43 2 -6 19 -14 38 -18 57 -13 1284 -20
1599 -10 283 9 330 14 330 33 0 17 -80 28 -256 35 l-182 7 -32 86 c-17 47 -44
120 -60 161 -15 41 -50 133 -77 204 -44 119 -50 130 -78 138 -35 9 -187 50
-292 79 -40 10 -107 28 -148 39 -89 24 -85 23 -85 7z"/>
</g>
</svg>
